<svg xmlns="http://www.w3.org/2000/svg" xmlns:xlink="http://www.w3.org/1999/xlink" width="500" zoomAndPan="magnify" viewBox="0 0 375 374.999991" height="500" preserveAspectRatio="xMidYMid meet" version="1.0"><defs><clipPath id="f29bef7713"><path d="M 26 52.441406 L 359 52.441406 L 359 331.441406 L 26 331.441406 Z M 26 52.441406 " clip-rule="nonzero"/></clipPath><clipPath id="ffedfd5836"><path d="M 298.496094 180.855469 L 298.496094 241.636719 C 298.496094 243.101562 298.460938 244.566406 298.390625 246.027344 C 298.316406 247.492188 298.210938 248.949219 298.066406 250.410156 C 297.921875 251.867188 297.742188 253.320312 297.527344 254.769531 C 297.3125 256.214844 297.0625 257.660156 296.777344 259.09375 C 296.492188 260.53125 296.171875 261.960938 295.816406 263.378906 C 295.460938 264.800781 295.070312 266.210938 294.644531 267.613281 C 294.21875 269.015625 293.761719 270.40625 293.265625 271.785156 C 292.773438 273.164062 292.246094 274.527344 291.6875 275.882812 C 291.125 277.234375 290.53125 278.574219 289.90625 279.898438 C 289.28125 281.222656 288.621094 282.527344 287.929688 283.820312 C 287.242188 285.113281 286.519531 286.386719 285.765625 287.640625 C 285.015625 288.898438 284.230469 290.132812 283.417969 291.351562 C 282.601562 292.570312 281.761719 293.765625 280.886719 294.941406 C 280.015625 296.121094 279.113281 297.273438 278.1875 298.40625 C 277.257812 299.539062 276.300781 300.644531 275.316406 301.730469 C 274.332031 302.816406 273.324219 303.875 272.289062 304.914062 C 271.253906 305.949219 270.191406 306.957031 269.109375 307.941406 C 268.023438 308.925781 266.914062 309.878906 265.78125 310.808594 C 264.648438 311.738281 263.496094 312.640625 262.320312 313.511719 C 261.144531 314.382812 259.945312 315.226562 258.726562 316.039062 C 257.511719 316.855469 256.273438 317.636719 255.019531 318.390625 C 253.761719 319.144531 252.488281 319.867188 251.195312 320.554688 C 249.90625 321.246094 248.597656 321.902344 247.273438 322.53125 C 245.949219 323.15625 244.609375 323.75 243.257812 324.308594 C 241.90625 324.871094 240.539062 325.398438 239.160156 325.890625 C 237.78125 326.382812 236.390625 326.84375 234.988281 327.269531 C 233.589844 327.695312 232.175781 328.085938 230.757812 328.441406 C 229.335938 328.796875 227.90625 329.117188 226.472656 329.402344 C 225.035156 329.6875 223.59375 329.9375 222.144531 330.152344 C 220.695312 330.367188 219.242188 330.546875 217.785156 330.691406 C 216.328125 330.835938 214.867188 330.941406 213.40625 331.015625 C 211.941406 331.085938 210.480469 331.121094 209.015625 331.121094 L 115.957031 331.121094 C 114.492188 331.121094 113.027344 331.082031 111.5625 331.007812 C 110.097656 330.933594 108.632812 330.824219 107.175781 330.679688 C 105.714844 330.535156 104.261719 330.351562 102.808594 330.136719 C 101.359375 329.917969 99.914062 329.667969 98.476562 329.378906 C 97.039062 329.089844 95.609375 328.769531 94.183594 328.410156 C 92.761719 328.054688 91.351562 327.660156 89.945312 327.234375 C 88.542969 326.808594 87.152344 326.347656 85.769531 325.851562 C 84.390625 325.355469 83.023438 324.828125 81.667969 324.265625 C 80.3125 323.703125 78.972656 323.109375 77.648438 322.480469 C 76.324219 321.851562 75.011719 321.191406 73.71875 320.5 C 72.425781 319.808594 71.152344 319.085938 69.894531 318.332031 C 68.636719 317.574219 67.398438 316.789062 66.179688 315.976562 C 64.957031 315.160156 63.761719 314.316406 62.582031 313.441406 C 61.40625 312.566406 60.25 311.664062 59.113281 310.734375 C 57.980469 309.804688 56.871094 308.847656 55.785156 307.859375 C 54.699219 306.875 53.636719 305.863281 52.597656 304.828125 C 51.5625 303.789062 50.550781 302.726562 49.566406 301.640625 C 48.582031 300.554688 47.621094 299.445312 46.691406 298.3125 C 45.761719 297.175781 44.859375 296.023438 43.984375 294.84375 C 43.109375 293.667969 42.265625 292.46875 41.449219 291.25 C 40.636719 290.027344 39.851562 288.789062 39.097656 287.53125 C 38.34375 286.273438 37.617188 285 36.925781 283.707031 C 36.234375 282.414062 35.574219 281.105469 34.945312 279.777344 C 34.320312 278.453125 33.722656 277.113281 33.160156 275.757812 C 32.597656 274.402344 32.070312 273.035156 31.574219 271.65625 C 31.082031 270.273438 30.621094 268.882812 30.191406 267.480469 C 29.765625 266.074219 29.371094 264.664062 29.015625 263.242188 C 28.65625 261.820312 28.335938 260.386719 28.046875 258.949219 C 27.761719 257.511719 27.507812 256.066406 27.289062 254.617188 C 27.074219 253.164062 26.894531 251.710938 26.746094 250.25 C 26.601562 248.792969 26.492188 247.328125 26.417969 245.863281 C 26.34375 244.398438 26.308594 242.933594 26.304688 241.46875 L 26.304688 148.410156 C 26.308594 146.945312 26.34375 145.480469 26.417969 144.015625 C 26.492188 142.554688 26.605469 141.09375 26.75 139.632812 C 26.894531 138.175781 27.078125 136.722656 27.292969 135.273438 C 27.511719 133.824219 27.765625 132.378906 28.050781 130.941406 C 28.339844 129.503906 28.664062 128.078125 29.023438 126.65625 C 29.378906 125.234375 29.773438 123.824219 30.199219 122.421875 C 30.628906 121.019531 31.089844 119.628906 31.585938 118.25 C 32.078125 116.871094 32.609375 115.503906 33.171875 114.148438 C 33.734375 112.796875 34.328125 111.457031 34.957031 110.132812 C 35.585938 108.808594 36.246094 107.503906 36.9375 106.210938 C 37.632812 104.917969 38.355469 103.644531 39.109375 102.386719 C 39.863281 101.132812 40.648438 99.894531 41.464844 98.675781 C 42.28125 97.460938 43.125 96.261719 44 95.085938 C 44.875 93.910156 45.777344 92.757812 46.707031 91.625 C 47.640625 90.492188 48.597656 89.382812 49.582031 88.300781 C 50.566406 87.214844 51.578125 86.152344 52.617188 85.117188 C 53.652344 84.082031 54.714844 83.074219 55.804688 82.089844 C 56.890625 81.109375 58 80.152344 59.132812 79.222656 C 60.265625 78.292969 61.421875 77.394531 62.601562 76.519531 C 63.777344 75.648438 64.976562 74.808594 66.195312 73.992188 C 67.417969 73.179688 68.65625 72.398438 69.914062 71.644531 C 71.167969 70.890625 72.445312 70.171875 73.738281 69.480469 C 75.03125 68.789062 76.339844 68.132812 77.664062 67.507812 C 78.992188 66.882812 80.332031 66.289062 81.683594 65.730469 C 83.039062 65.167969 84.40625 64.640625 85.785156 64.148438 C 87.167969 63.65625 88.558594 63.195312 89.960938 62.773438 C 91.363281 62.347656 92.777344 61.957031 94.199219 61.601562 C 95.621094 61.246094 97.050781 60.925781 98.488281 60.640625 C 99.925781 60.355469 101.367188 60.105469 102.816406 59.890625 C 104.269531 59.675781 105.722656 59.5 107.179688 59.355469 C 108.640625 59.210938 110.101562 59.105469 111.5625 59.035156 C 113.027344 58.960938 114.492188 58.925781 115.957031 58.925781 L 281.484375 58.925781 C 282.910156 58.925781 284.3125 59.101562 285.691406 59.453125 C 287.070312 59.804688 288.382812 60.324219 289.632812 61.007812 C 290.882812 61.691406 292.027344 62.519531 293.066406 63.492188 C 294.105469 64.464844 295.007812 65.550781 295.777344 66.753906 L 189.164062 173.367188 C 188.742188 173.789062 188.28125 174.160156 187.78125 174.484375 C 187.28125 174.808594 186.75 175.078125 186.195312 175.292969 C 185.636719 175.507812 185.066406 175.660156 184.476562 175.753906 C 183.886719 175.847656 183.292969 175.875 182.699219 175.84375 C 182.101562 175.8125 181.515625 175.71875 180.941406 175.566406 C 180.363281 175.410156 179.8125 175.199219 179.28125 174.925781 C 178.75 174.65625 178.253906 174.332031 177.789062 173.957031 C 177.324219 173.578125 176.90625 173.160156 176.53125 172.695312 L 136.714844 123.402344 C 135.113281 121.429688 133.3125 119.65625 131.316406 118.085938 C 129.316406 116.511719 127.171875 115.183594 124.875 114.09375 C 122.578125 113.003906 120.1875 112.183594 117.707031 111.628906 C 115.226562 111.074219 112.714844 110.804688 110.175781 110.816406 C 108.25 110.820312 106.335938 110.988281 104.441406 111.324219 C 102.542969 111.65625 100.691406 112.148438 98.878906 112.800781 C 97.066406 113.453125 95.324219 114.253906 93.652344 115.207031 C 91.976562 116.160156 90.394531 117.246094 88.910156 118.46875 C 87.152344 119.847656 85.550781 121.386719 84.109375 123.089844 C 82.667969 124.792969 81.410156 126.625 80.34375 128.585938 C 79.277344 130.542969 78.417969 132.59375 77.769531 134.730469 C 77.121094 136.863281 76.695312 139.042969 76.492188 141.265625 C 76.230469 143.488281 76.195312 145.714844 76.382812 147.945312 C 76.570312 150.175781 76.980469 152.367188 77.609375 154.511719 C 78.234375 156.660156 79.070312 158.726562 80.117188 160.707031 C 81.160156 162.683594 82.390625 164.542969 83.804688 166.273438 L 153.386719 252.355469 C 154.890625 254.203125 156.574219 255.875 158.429688 257.371094 C 160.285156 258.867188 162.273438 260.160156 164.394531 261.242188 C 166.519531 262.328125 168.730469 263.179688 171.03125 263.804688 C 173.332031 264.429688 175.671875 264.808594 178.050781 264.945312 L 179.921875 264.945312 C 182.15625 264.945312 184.363281 264.722656 186.554688 264.285156 C 188.742188 263.84375 190.863281 263.191406 192.921875 262.332031 C 194.980469 261.46875 196.9375 260.414062 198.785156 259.164062 C 200.632812 257.917969 202.34375 256.496094 203.910156 254.910156 L 283.976562 174.839844 C 284.570312 174.246094 285.238281 173.75 285.980469 173.355469 C 286.722656 172.957031 287.507812 172.675781 288.332031 172.511719 C 289.15625 172.347656 289.988281 172.308594 290.824219 172.390625 C 291.660156 172.472656 292.46875 172.675781 293.246094 172.996094 C 294.023438 173.320312 294.738281 173.746094 295.386719 174.28125 C 296.039062 174.8125 296.597656 175.429688 297.0625 176.128906 C 297.53125 176.828125 297.886719 177.582031 298.132812 178.386719 C 298.375 179.191406 298.496094 180.015625 298.496094 180.855469 Z M 352.9375 57.738281 C 352.542969 57.34375 352.132812 56.96875 351.703125 56.617188 C 351.273438 56.265625 350.828125 55.933594 350.367188 55.625 C 349.90625 55.316406 349.429688 55.03125 348.941406 54.765625 C 348.449219 54.503906 347.949219 54.265625 347.433594 54.054688 C 346.921875 53.839844 346.398438 53.652344 345.867188 53.492188 C 345.335938 53.332031 344.796875 53.195312 344.253906 53.085938 C 343.707031 52.980469 343.160156 52.898438 342.605469 52.84375 C 342.050781 52.789062 341.5 52.761719 340.941406 52.761719 C 340.386719 52.761719 339.832031 52.789062 339.28125 52.84375 C 338.726562 52.898438 338.175781 52.980469 337.632812 53.085938 C 337.085938 53.195312 336.550781 53.332031 336.019531 53.492188 C 335.484375 53.652344 334.964844 53.839844 334.449219 54.054688 C 333.9375 54.265625 333.433594 54.503906 332.945312 54.765625 C 332.457031 55.03125 331.980469 55.316406 331.519531 55.625 C 331.054688 55.933594 330.609375 56.265625 330.183594 56.617188 C 329.753906 56.96875 329.339844 57.34375 328.949219 57.738281 L 298.496094 88.1875 L 181.285156 205.574219 L 123.445312 134.121094 C 123.09375 133.6875 122.722656 133.269531 122.332031 132.871094 C 121.941406 132.46875 121.53125 132.089844 121.105469 131.734375 C 120.675781 131.375 120.230469 131.039062 119.769531 130.722656 C 119.308594 130.40625 118.832031 130.117188 118.339844 129.847656 C 117.851562 129.582031 117.347656 129.339844 116.835938 129.121094 C 116.320312 128.902344 115.796875 128.707031 115.265625 128.542969 C 114.730469 128.375 114.191406 128.234375 113.644531 128.121094 C 113.097656 128.007812 112.546875 127.921875 111.988281 127.863281 C 111.433594 127.804688 110.878906 127.773438 110.320312 127.769531 C 109.761719 127.765625 109.203125 127.789062 108.644531 127.839844 C 108.089844 127.890625 107.539062 127.96875 106.988281 128.074219 C 106.441406 128.179688 105.898438 128.3125 105.363281 128.46875 C 104.828125 128.628906 104.300781 128.8125 103.785156 129.023438 C 103.265625 129.234375 102.761719 129.472656 102.265625 129.730469 C 101.773438 129.992188 101.292969 130.277344 100.824219 130.585938 C 100.359375 130.890625 99.910156 131.222656 99.476562 131.574219 C 99.042969 131.925781 98.628906 132.300781 98.230469 132.695312 C 97.835938 133.085938 97.457031 133.5 97.101562 133.929688 C 96.746094 134.359375 96.414062 134.804688 96.101562 135.269531 C 95.789062 135.734375 95.5 136.210938 95.234375 136.703125 C 94.96875 137.195312 94.730469 137.699219 94.515625 138.214844 C 94.300781 138.730469 94.109375 139.253906 93.945312 139.789062 C 93.785156 140.324219 93.648438 140.863281 93.535156 141.410156 C 93.425781 141.957031 93.34375 142.511719 93.289062 143.066406 C 93.230469 143.621094 93.203125 144.179688 93.203125 144.738281 C 93.203125 145.296875 93.230469 145.855469 93.285156 146.410156 C 93.339844 146.964844 93.417969 147.519531 93.527344 148.066406 C 93.636719 148.613281 93.773438 149.15625 93.933594 149.691406 C 94.097656 150.222656 94.285156 150.75 94.5 151.265625 C 94.710938 151.78125 94.949219 152.285156 95.214844 152.777344 C 95.476562 153.269531 95.765625 153.75 96.078125 154.214844 C 96.386719 154.679688 96.71875 155.125 97.074219 155.558594 L 166.652344 241.636719 C 167.40625 242.554688 168.242188 243.382812 169.164062 244.125 C 170.085938 244.871094 171.074219 245.511719 172.125 246.054688 C 173.179688 246.59375 174.277344 247.023438 175.417969 247.339844 C 176.558594 247.65625 177.722656 247.855469 178.902344 247.933594 L 179.921875 247.933594 C 182.152344 247.914062 184.296875 247.480469 186.359375 246.625 C 188.417969 245.773438 190.242188 244.5625 191.832031 243 L 298.496094 136.332031 L 352.9375 81.894531 C 353.339844 81.503906 353.722656 81.09375 354.082031 80.664062 C 354.445312 80.234375 354.785156 79.785156 355.101562 79.320312 C 355.417969 78.859375 355.710938 78.378906 355.980469 77.886719 C 356.25 77.394531 356.492188 76.890625 356.710938 76.371094 C 356.929688 75.855469 357.121094 75.328125 357.289062 74.789062 C 357.453125 74.253906 357.59375 73.710938 357.703125 73.160156 C 357.816406 72.609375 357.898438 72.054688 357.957031 71.496094 C 358.011719 70.9375 358.039062 70.378906 358.039062 69.816406 C 358.039062 69.253906 358.011719 68.695312 357.957031 68.132812 C 357.898438 67.574219 357.816406 67.019531 357.703125 66.472656 C 357.59375 65.921875 357.453125 65.375 357.289062 64.839844 C 357.121094 64.304688 356.929688 63.777344 356.710938 63.257812 C 356.492188 62.742188 356.25 62.238281 355.980469 61.742188 C 355.710938 61.25 355.417969 60.773438 355.101562 60.308594 C 354.785156 59.84375 354.445312 59.398438 354.082031 58.96875 C 353.722656 58.539062 353.339844 58.128906 352.9375 57.738281 Z M 352.9375 57.738281 " clip-rule="nonzero"/></clipPath><linearGradient x1="12" gradientTransform="matrix(17.012051, 0, 0, 17.012196, -11.972317, -12.20508)" y1="20.18122" x2="12" gradientUnits="userSpaceOnUse" y2="3.818786" id="8cc63e6f6a"><stop stop-opacity="1" stop-color="rgb(53.29895%, 20.799255%, 77.2995%)" offset="0"/><stop stop-opacity="1" stop-color="rgb(53.427124%, 20.913696%, 77.357483%)" offset="0.0078125"/><stop stop-opacity="1" stop-color="rgb(53.684998%, 21.142578%, 77.47345%)" offset="0.015625"/><stop stop-opacity="1" stop-color="rgb(53.942871%, 21.372986%, 77.589417%)" offset="0.0234375"/><stop stop-opacity="1" stop-color="rgb(54.200745%, 21.601868%, 77.706909%)" offset="0.03125"/><stop stop-opacity="1" stop-color="rgb(54.458618%, 21.832275%, 77.822876%)" offset="0.0390625"/><stop stop-opacity="1" stop-color="rgb(54.716492%, 22.061157%, 77.938843%)" offset="0.046875"/><stop stop-opacity="1" stop-color="rgb(54.974365%, 22.291565%, 78.05481%)" offset="0.0546875"/><stop stop-opacity="1" stop-color="rgb(55.232239%, 22.520447%, 78.172302%)" offset="0.0625"/><stop stop-opacity="1" stop-color="rgb(55.490112%, 22.750854%, 78.288269%)" offset="0.0703125"/><stop stop-opacity="1" stop-color="rgb(55.747986%, 22.981262%, 78.404236%)" offset="0.078125"/><stop stop-opacity="1" stop-color="rgb(56.005859%, 23.210144%, 78.521729%)" offset="0.0859375"/><stop stop-opacity="1" stop-color="rgb(56.263733%, 23.440552%, 78.637695%)" offset="0.09375"/><stop stop-opacity="1" stop-color="rgb(56.520081%, 23.669434%, 78.753662%)" offset="0.101563"/><stop stop-opacity="1" stop-color="rgb(56.777954%, 23.899841%, 78.869629%)" offset="0.109375"/><stop stop-opacity="1" stop-color="rgb(57.035828%, 24.128723%, 78.987122%)" offset="0.117188"/><stop stop-opacity="1" stop-color="rgb(57.293701%, 24.359131%, 79.103088%)" offset="0.125"/><stop stop-opacity="1" stop-color="rgb(57.551575%, 24.588013%, 79.219055%)" offset="0.132813"/><stop stop-opacity="1" stop-color="rgb(57.809448%, 24.81842%, 79.336548%)" offset="0.140625"/><stop stop-opacity="1" stop-color="rgb(58.067322%, 25.047302%, 79.452515%)" offset="0.148438"/><stop stop-opacity="1" stop-color="rgb(58.325195%, 25.27771%, 79.568481%)" offset="0.15625"/><stop stop-opacity="1" stop-color="rgb(58.583069%, 25.506592%, 79.684448%)" offset="0.164062"/><stop stop-opacity="1" stop-color="rgb(58.840942%, 25.737%, 79.801941%)" offset="0.171875"/><stop stop-opacity="1" stop-color="rgb(59.098816%, 25.965881%, 79.917908%)" offset="0.179688"/><stop stop-opacity="1" stop-color="rgb(59.356689%, 26.196289%, 80.033875%)" offset="0.1875"/><stop stop-opacity="1" stop-color="rgb(59.614563%, 26.425171%, 80.151367%)" offset="0.195312"/><stop stop-opacity="1" stop-color="rgb(59.872437%, 26.655579%, 80.267334%)" offset="0.203125"/><stop stop-opacity="1" stop-color="rgb(60.13031%, 26.885986%, 80.383301%)" offset="0.210938"/><stop stop-opacity="1" stop-color="rgb(60.388184%, 27.114868%, 80.500793%)" offset="0.21875"/><stop stop-opacity="1" stop-color="rgb(60.646057%, 27.345276%, 80.61676%)" offset="0.226563"/><stop stop-opacity="1" stop-color="rgb(60.903931%, 27.574158%, 80.732727%)" offset="0.234375"/><stop stop-opacity="1" stop-color="rgb(61.161804%, 27.804565%, 80.848694%)" offset="0.242188"/><stop stop-opacity="1" stop-color="rgb(61.419678%, 28.033447%, 80.966187%)" offset="0.25"/><stop stop-opacity="1" stop-color="rgb(61.677551%, 28.263855%, 81.082153%)" offset="0.257812"/><stop stop-opacity="1" stop-color="rgb(61.935425%, 28.492737%, 81.19812%)" offset="0.265625"/><stop stop-opacity="1" stop-color="rgb(62.193298%, 28.723145%, 81.315613%)" offset="0.273438"/><stop stop-opacity="1" stop-color="rgb(62.451172%, 28.952026%, 81.43158%)" offset="0.28125"/><stop stop-opacity="1" stop-color="rgb(62.709045%, 29.182434%, 81.547546%)" offset="0.289063"/><stop stop-opacity="1" stop-color="rgb(62.966919%, 29.411316%, 81.663513%)" offset="0.296875"/><stop stop-opacity="1" stop-color="rgb(63.224792%, 29.641724%, 81.781006%)" offset="0.304688"/><stop stop-opacity="1" stop-color="rgb(63.482666%, 29.870605%, 81.896973%)" offset="0.3125"/><stop stop-opacity="1" stop-color="rgb(63.739014%, 30.101013%, 82.012939%)" offset="0.320313"/><stop stop-opacity="1" stop-color="rgb(63.996887%, 30.331421%, 82.130432%)" offset="0.328125"/><stop stop-opacity="1" stop-color="rgb(64.254761%, 30.560303%, 82.246399%)" offset="0.335937"/><stop stop-opacity="1" stop-color="rgb(64.512634%, 30.79071%, 82.362366%)" offset="0.34375"/><stop stop-opacity="1" stop-color="rgb(64.770508%, 31.019592%, 82.478333%)" offset="0.351562"/><stop stop-opacity="1" stop-color="rgb(65.028381%, 31.25%, 82.595825%)" offset="0.359375"/><stop stop-opacity="1" stop-color="rgb(65.286255%, 31.478882%, 82.711792%)" offset="0.367187"/><stop stop-opacity="1" stop-color="rgb(65.544128%, 31.70929%, 82.827759%)" offset="0.375"/><stop stop-opacity="1" stop-color="rgb(65.802002%, 31.938171%, 82.945251%)" offset="0.382812"/><stop stop-opacity="1" stop-color="rgb(66.059875%, 32.168579%, 83.061218%)" offset="0.390625"/><stop stop-opacity="1" stop-color="rgb(66.317749%, 32.397461%, 83.177185%)" offset="0.398437"/><stop stop-opacity="1" stop-color="rgb(66.575623%, 32.627869%, 83.293152%)" offset="0.40625"/><stop stop-opacity="1" stop-color="rgb(66.833496%, 32.85675%, 83.410645%)" offset="0.414062"/><stop stop-opacity="1" stop-color="rgb(67.09137%, 33.087158%, 83.526611%)" offset="0.421875"/><stop stop-opacity="1" stop-color="rgb(67.349243%, 33.31604%, 83.642578%)" offset="0.429688"/><stop stop-opacity="1" stop-color="rgb(67.607117%, 33.546448%, 83.760071%)" offset="0.4375"/><stop stop-opacity="1" stop-color="rgb(67.86499%, 33.776855%, 83.876038%)" offset="0.445312"/><stop stop-opacity="1" stop-color="rgb(68.122864%, 34.005737%, 83.992004%)" offset="0.453125"/><stop stop-opacity="1" stop-color="rgb(68.380737%, 34.236145%, 84.109497%)" offset="0.460938"/><stop stop-opacity="1" stop-color="rgb(68.638611%, 34.465027%, 84.225464%)" offset="0.46875"/><stop stop-opacity="1" stop-color="rgb(68.896484%, 34.695435%, 84.341431%)" offset="0.476563"/><stop stop-opacity="1" stop-color="rgb(69.154358%, 34.924316%, 84.457397%)" offset="0.484375"/><stop stop-opacity="1" stop-color="rgb(69.412231%, 35.154724%, 84.57489%)" offset="0.492188"/><stop stop-opacity="1" stop-color="rgb(69.670105%, 35.383606%, 84.690857%)" offset="0.5"/><stop stop-opacity="1" stop-color="rgb(69.927979%, 35.614014%, 84.806824%)" offset="0.507812"/><stop stop-opacity="1" stop-color="rgb(70.185852%, 35.842896%, 84.924316%)" offset="0.515625"/><stop stop-opacity="1" stop-color="rgb(70.443726%, 36.073303%, 85.040283%)" offset="0.523438"/><stop stop-opacity="1" stop-color="rgb(70.701599%, 36.302185%, 85.15625%)" offset="0.53125"/><stop stop-opacity="1" stop-color="rgb(70.957947%, 36.532593%, 85.272217%)" offset="0.539062"/><stop stop-opacity="1" stop-color="rgb(71.21582%, 36.761475%, 85.389709%)" offset="0.546875"/><stop stop-opacity="1" stop-color="rgb(71.473694%, 36.991882%, 85.505676%)" offset="0.554688"/><stop stop-opacity="1" stop-color="rgb(71.731567%, 37.22229%, 85.621643%)" offset="0.5625"/><stop stop-opacity="1" stop-color="rgb(71.989441%, 37.451172%, 85.739136%)" offset="0.570313"/><stop stop-opacity="1" stop-color="rgb(72.247314%, 37.68158%, 85.855103%)" offset="0.578125"/><stop stop-opacity="1" stop-color="rgb(72.505188%, 37.910461%, 85.971069%)" offset="0.585938"/><stop stop-opacity="1" stop-color="rgb(72.763062%, 38.140869%, 86.087036%)" offset="0.59375"/><stop stop-opacity="1" stop-color="rgb(73.020935%, 38.369751%, 86.204529%)" offset="0.601563"/><stop stop-opacity="1" stop-color="rgb(73.278809%, 38.600159%, 86.320496%)" offset="0.609375"/><stop stop-opacity="1" stop-color="rgb(73.536682%, 38.829041%, 86.436462%)" offset="0.617188"/><stop stop-opacity="1" stop-color="rgb(73.794556%, 39.059448%, 86.553955%)" offset="0.625"/><stop stop-opacity="1" stop-color="rgb(74.052429%, 39.28833%, 86.669922%)" offset="0.632812"/><stop stop-opacity="1" stop-color="rgb(74.310303%, 39.518738%, 86.785889%)" offset="0.640625"/><stop stop-opacity="1" stop-color="rgb(74.568176%, 39.74762%, 86.901855%)" offset="0.648438"/><stop stop-opacity="1" stop-color="rgb(74.82605%, 39.978027%, 87.019348%)" offset="0.65625"/><stop stop-opacity="1" stop-color="rgb(75.083923%, 40.206909%, 87.135315%)" offset="0.664062"/><stop stop-opacity="1" stop-color="rgb(75.341797%, 40.437317%, 87.251282%)" offset="0.671875"/><stop stop-opacity="1" stop-color="rgb(75.59967%, 40.666199%, 87.368774%)" offset="0.679688"/><stop stop-opacity="1" stop-color="rgb(75.857544%, 40.896606%, 87.484741%)" offset="0.6875"/><stop stop-opacity="1" stop-color="rgb(76.115417%, 41.127014%, 87.600708%)" offset="0.695312"/><stop stop-opacity="1" stop-color="rgb(76.373291%, 41.355896%, 87.718201%)" offset="0.703125"/><stop stop-opacity="1" stop-color="rgb(76.631165%, 41.586304%, 87.834167%)" offset="0.710937"/><stop stop-opacity="1" stop-color="rgb(76.889038%, 41.815186%, 87.950134%)" offset="0.71875"/><stop stop-opacity="1" stop-color="rgb(77.146912%, 42.045593%, 88.066101%)" offset="0.726562"/><stop stop-opacity="1" stop-color="rgb(77.404785%, 42.274475%, 88.183594%)" offset="0.734375"/><stop stop-opacity="1" stop-color="rgb(77.662659%, 42.504883%, 88.299561%)" offset="0.742187"/><stop stop-opacity="1" stop-color="rgb(77.920532%, 42.733765%, 88.415527%)" offset="0.75"/><stop stop-opacity="1" stop-color="rgb(78.17688%, 42.964172%, 88.53302%)" offset="0.757812"/><stop stop-opacity="1" stop-color="rgb(78.434753%, 43.193054%, 88.648987%)" offset="0.765625"/><stop stop-opacity="1" stop-color="rgb(78.692627%, 43.423462%, 88.764954%)" offset="0.773437"/><stop stop-opacity="1" stop-color="rgb(78.9505%, 43.652344%, 88.88092%)" offset="0.78125"/><stop stop-opacity="1" stop-color="rgb(79.208374%, 43.882751%, 88.998413%)" offset="0.789062"/><stop stop-opacity="1" stop-color="rgb(79.466248%, 44.111633%, 89.11438%)" offset="0.796875"/><stop stop-opacity="1" stop-color="rgb(79.724121%, 44.342041%, 89.230347%)" offset="0.804687"/><stop stop-opacity="1" stop-color="rgb(79.981995%, 44.572449%, 89.347839%)" offset="0.8125"/><stop stop-opacity="1" stop-color="rgb(80.239868%, 44.801331%, 89.463806%)" offset="0.820312"/><stop stop-opacity="1" stop-color="rgb(80.497742%, 45.031738%, 89.579773%)" offset="0.828125"/><stop stop-opacity="1" stop-color="rgb(80.755615%, 45.26062%, 89.69574%)" offset="0.835938"/><stop stop-opacity="1" stop-color="rgb(81.013489%, 45.491028%, 89.813232%)" offset="0.84375"/><stop stop-opacity="1" stop-color="rgb(81.271362%, 45.71991%, 89.929199%)" offset="0.851562"/><stop stop-opacity="1" stop-color="rgb(81.529236%, 45.950317%, 90.045166%)" offset="0.859375"/><stop stop-opacity="1" stop-color="rgb(81.787109%, 46.179199%, 90.162659%)" offset="0.867188"/><stop stop-opacity="1" stop-color="rgb(82.044983%, 46.409607%, 90.278625%)" offset="0.875"/><stop stop-opacity="1" stop-color="rgb(82.302856%, 46.638489%, 90.394592%)" offset="0.882812"/><stop stop-opacity="1" stop-color="rgb(82.56073%, 46.868896%, 90.510559%)" offset="0.890625"/><stop stop-opacity="1" stop-color="rgb(82.818604%, 47.097778%, 90.628052%)" offset="0.898437"/><stop stop-opacity="1" stop-color="rgb(83.076477%, 47.328186%, 90.744019%)" offset="0.90625"/><stop stop-opacity="1" stop-color="rgb(83.334351%, 47.557068%, 90.859985%)" offset="0.914062"/><stop stop-opacity="1" stop-color="rgb(83.592224%, 47.787476%, 90.977478%)" offset="0.921875"/><stop stop-opacity="1" stop-color="rgb(83.850098%, 48.017883%, 91.093445%)" offset="0.929688"/><stop stop-opacity="1" stop-color="rgb(84.107971%, 48.246765%, 91.209412%)" offset="0.9375"/><stop stop-opacity="1" stop-color="rgb(84.365845%, 48.477173%, 91.325378%)" offset="0.945313"/><stop stop-opacity="1" stop-color="rgb(84.623718%, 48.706055%, 91.442871%)" offset="0.953125"/><stop stop-opacity="1" stop-color="rgb(84.881592%, 48.936462%, 91.558838%)" offset="0.960938"/><stop stop-opacity="1" stop-color="rgb(85.139465%, 49.165344%, 91.674805%)" offset="0.96875"/><stop stop-opacity="1" stop-color="rgb(85.395813%, 49.395752%, 91.792297%)" offset="0.976562"/><stop stop-opacity="1" stop-color="rgb(85.653687%, 49.624634%, 91.908264%)" offset="0.984375"/><stop stop-opacity="1" stop-color="rgb(85.91156%, 49.855042%, 92.024231%)" offset="0.992188"/><stop stop-opacity="1" stop-color="rgb(86.169434%, 50.083923%, 92.141724%)" offset="1"/></linearGradient></defs><rect x="-37.5" width="450" fill="#ffffff" y="-37.499999" height="449.999989" fill-opacity="1"/><rect x="-37.5" width="450" fill="#ffffff" y="-37.499999" height="449.999989" fill-opacity="1"/><g clip-path="url(#f29bef7713)"><g clip-path="url(#ffedfd5836)"><path fill="url(#8cc63e6f6a)" d="M 26.304688 52.761719 L 26.304688 331.121094 L 358.039062 331.121094 L 358.039062 52.761719 Z M 26.304688 52.761719 " fill-rule="nonzero"/></g></g></svg>